# xmcd
#
# Track frame offsets:
#	150
#	15037
#	28955
#	42312
#	59720
#	72542
#	88857
#	102825
#	115145
#	129482
#	144795
#	157817
#	171962
#	187515
#	201087
#	214370
#
# Disc length: 3017 seconds
#
# Revision: 1
# Processed by: cddbd v1.4PL0 Copyright (c) Steve Scherf et al.
# Submitted via: audiograbber 1.82.01
#
DISCID=da0bc710
DTITLE=los tigres del norte - de pelicula
DYEAR=1995
DGENRE=narcocorrido
TTITLE0=la camioneta gris
TTITLE1=la broco negra
TTITLE2=carrera contra la muerte
TTITLE3=30 segundos para morir
TTITLE4=la muerte del soplon
TTITLE5=el tahur
TTITLE6=la banda del carro rojo
TTITLE7=la jaula de oro
TTITLE8=los tres gallos
TTITLE9=contrabando y traicion
TTITLE10=tres veces mojado
TTITLE11=la fuga del rojo
TTITLE12=la puerta negra
TTITLE13=el hijo de camelia
TTITLE14=contrabando y robo
TTITLE15=ni parientes somos
EXTD=
EXTT0=
EXTT1=
EXTT2=
EXTT3=
EXTT4=
EXTT5=
EXTT6=
EXTT7=
EXTT8=
EXTT9=
EXTT10=
EXTT11=
EXTT12=
EXTT13=
EXTT14=
EXTT15=
PLAYORDER=
